<svg width="200" height="200" viewBox="0 0 200 200" fill="none" xmlns="http://www.w3.org/2000/svg">
<path d="M5 2.50006C5 3.88077 3.88071 5.00006 2.5 5.00006C1.11929 5.00006 0 3.88077 0 2.50006C0 1.11935 1.11929 6.10352e-05 2.5 6.10352e-05C3.88071 6.10352e-05 5 1.11935 5 2.50006Z" fill="black"/>
<path d="M13 2.50006C13 3.88077 11.8807 5.00006 10.5 5.00006C9.11929 5.00006 8 3.88077 8 2.50006C8 1.11935 9.11929 6.10352e-05 10.5 6.10352e-05C11.8807 6.10352e-05 13 1.11935 13 2.50006Z" fill="black"/>
<path d="M21 2.50006C21 3.88077 19.8807 5.00006 18.5 5.00006C17.1193 5.00006 16 3.88077 16 2.50006C16 1.11935 17.1193 6.10352e-05 18.5 6.10352e-05C19.8807 6.10352e-05 21 1.11935 21 2.50006Z" fill="black"/>
<path d="M29 2.50006C29 3.88077 27.8807 5.00006 26.5 5.00006C25.1193 5.00006 24 3.88077 24 2.50006C24 1.11935 25.1193 6.10352e-05 26.5 6.10352e-05C27.8807 6.10352e-05 29 1.11935 29 2.50006Z" fill="#1A1A1A" fill-opacity="0.2"/>
<path d="M26.5 6.10352e-05C25.837 6.10641e-05 25.2011 0.263387 24.7322 0.732228C24.2634 1.20107 24 1.83702 24 2.50006C24 3.1631 24.2634 3.79892 24.7322 4.26776C25.2011 4.7366 25.837 5.00006 26.5 5.00006V6.10352e-05Z" fill="black"/>
<path d="M37 2.50006C37 3.88077 35.8807 5.00006 34.5 5.00006C33.1193 5.00006 32 3.88077 32 2.50006C32 1.11935 33.1193 6.10352e-05 34.5 6.10352e-05C35.8807 6.10352e-05 37 1.11935 37 2.50006Z" fill="#1A1A1A" fill-opacity="0.2"/>
<path d="M5 17.5C5 18.8807 3.88071 20 2.5 20C1.11929 20 0 18.8807 0 17.5C0 16.1193 1.11929 15 2.5 15C3.88071 15 5 16.1193 5 17.5Z" fill="black"/>
<path d="M13 17.5C13 18.8807 11.8807 20 10.5 20C9.11929 20 8 18.8807 8 17.5C8 16.1193 9.11929 15 10.5 15C11.8807 15 13 16.1193 13 17.5Z" fill="black"/>
<path d="M21 17.5C21 18.8807 19.8807 20 18.5 20C17.1193 20 16 18.8807 16 17.5C16 16.1193 17.1193 15 18.5 15C19.8807 15 21 16.1193 21 17.5Z" fill="black"/>
<path d="M29 17.5C29 18.8807 27.8807 20 26.5 20C25.1193 20 24 18.8807 24 17.5C24 16.1193 25.1193 15 26.5 15C27.8807 15 29 16.1193 29 17.5Z" fill="black"/>
<path d="M37 17.5C37 18.8807 35.8807 20 34.5 20C33.1193 20 32 18.8807 32 17.5C32 16.1193 33.1193 15 34.5 15C35.8807 15 37 16.1193 37 17.5Z" fill="#1A1A1A" fill-opacity="0.2"/>
<path d="M5 32.5C5 33.8807 3.88071 35 2.5 35C1.11929 35 0 33.8807 0 32.5C0 31.1193 1.11929 30 2.5 30C3.88071 30 5 31.1193 5 32.5Z" fill="black"/>
<path d="M13 32.5C13 33.8807 11.8807 35 10.5 35C9.11929 35 8 33.8807 8 32.5C8 31.1193 9.11929 30 10.5 30C11.8807 30 13 31.1193 13 32.5Z" fill="black"/>
<path d="M21 32.5C21 33.8807 19.8807 35 18.5 35C17.1193 35 16 33.8807 16 32.5C16 31.1193 17.1193 30 18.5 30C19.8807 30 21 31.1193 21 32.5Z" fill="black"/>
<path d="M29 32.5C29 33.8807 27.8807 35 26.5 35C25.1193 35 24 33.8807 24 32.5C24 31.1193 25.1193 30 26.5 30C27.8807 30 29 31.1193 29 32.5Z" fill="#1A1A1A" fill-opacity="0.2"/>
<path d="M37 32.5C37 33.8807 35.8807 35 34.5 35C33.1193 35 32 33.8807 32 32.5C32 31.1193 33.1193 30 34.5 30C35.8807 30 37 31.1193 37 32.5Z" fill="#1A1A1A" fill-opacity="0.2"/>
<path d="M5 47.5C5 48.8807 3.88071 50 2.5 50C1.11929 50 0 48.8807 0 47.5C0 46.1193 1.11929 45 2.5 45C3.88071 45 5 46.1193 5 47.5Z" fill="black"/>
<path d="M13 47.5C13 48.8807 11.8807 50 10.5 50C9.11929 50 8 48.8807 8 47.5C8 46.1193 9.11929 45 10.5 45C11.8807 45 13 46.1193 13 47.5Z" fill="#CACACA"/>
<path d="M21 47.5C21 48.8807 19.8807 50 18.5 50C17.1193 50 16 48.8807 16 47.5C16 46.1193 17.1193 45 18.5 45C19.8807 45 21 46.1193 21 47.5Z" fill="#1A1A1A" fill-opacity="0.2"/>
<path d="M29 47.5C29 48.8807 27.8807 50 26.5 50C25.1193 50 24 48.8807 24 47.5C24 46.1193 25.1193 45 26.5 45C27.8807 45 29 46.1193 29 47.5Z" fill="#1A1A1A" fill-opacity="0.2"/>
<path d="M37 47.5C37 48.8807 35.8807 50 34.5 50C33.1193 50 32 48.8807 32 47.5C32 46.1193 33.1193 45 34.5 45C35.8807 45 37 46.1193 37 47.5Z" fill="#1A1A1A" fill-opacity="0.2"/>
</svg>
